<?xml version="1.0" standalone="no"?>
<!DOCTYPE svg PUBLIC "-//W3C//DTD SVG 20010904//EN"
 "http://www.w3.org/TR/2001/REC-SVG-20010904/DTD/svg10.dtd">
<svg version="1.0" xmlns="http://www.w3.org/2000/svg"
 width="198.000000pt" height="198.000000pt" viewBox="0 0 198.000000 198.000000"
 preserveAspectRatio="xMidYMid meet">
<metadata>
Created by potrace 1.11, written by Peter Selinger 2001-2013
</metadata>
<g transform="translate(0.000000,198.000000) scale(0.100000,-0.100000)"
fill="#000000" stroke="none">
<path d="M510 1164 c-78 -12 -91 -18 -126 -51 -22 -21 -42 -37 -45 -36 -3 1
-5 -33 -5 -75 1 -92 24 -134 92 -164 41 -18 124 -23 124 -7 0 4 11 10 25 13
13 3 37 23 52 43 24 31 28 46 28 103 0 57 -4 72 -27 102 -15 19 -42 41 -60 48
-18 8 -35 17 -38 20 -3 3 -12 5 -20 4z m-86 -130 c3 -9 6 -29 6 -46 0 -16 7
-36 15 -44 8 -9 15 -12 15 -8 0 3 7 1 16 -6 13 -11 16 -10 21 8 3 12 9 22 13
22 12 0 20 28 13 45 -4 11 -16 15 -36 13 -39 -4 -47 18 -8 27 44 9 71 -12 71
-55 0 -29 -6 -39 -30 -53 -30 -18 -41 -46 -17 -48 9 0 9 -2 0 -5 -7 -3 -32 6
-57 21 -43 25 -44 27 -48 81 -1 31 -1 58 1 60 9 8 19 4 25 -12z m66 -60 c0 -8
-4 -12 -10 -9 -5 3 -10 13 -10 21 0 8 5 12 10 9 6 -3 10 -13 10 -21z"/>
<path d="M712 994 l3 -127 28 -4 c15 -2 27 0 28 4 1 4 2 26 4 48 1 22 3 43 4
47 0 3 17 6 37 6 42 0 45 2 38 28 -4 17 -13 21 -39 19 -35 -1 -49 13 -39 40 4
11 21 15 55 15 45 0 49 2 49 24 0 23 -3 23 -85 25 l-86 2 3 -127z"/>
<path d="M1558 1110 c-10 -6 -14 -18 -11 -30 4 -14 0 -20 -11 -20 -11 0 -16
-9 -16 -26 0 -19 4 -25 14 -21 12 5 15 -6 15 -50 0 -65 20 -94 70 -98 28 -2
31 0 31 26 0 23 -5 29 -21 29 -18 0 -20 5 -17 48 2 38 6 46 21 44 26 -4 23 44
-3 51 -12 3 -20 14 -20 25 0 11 -7 23 -16 26 -19 7 -15 8 -36 -4z"/>
<path d="M924 1058 c-7 -11 -6 -177 1 -187 3 -5 13 -8 23 -6 9 2 20 4 25 4 4
1 7 25 7 54 0 57 12 77 46 77 31 0 29 54 -3 58 -13 2 -23 -1 -23 -7 0 -6 -4
-11 -10 -11 -5 0 -10 6 -10 13 0 13 -49 17 -56 5z"/>
<path d="M1133 1059 c-102 -30 -68 -204 37 -194 8 1 22 3 31 3 20 2 59 39 59
56 0 18 -50 18 -68 0 -17 -18 -36 -18 -52 1 -20 24 -5 31 60 29 70 -2 80 8 59
57 -8 20 -25 37 -45 45 -37 16 -37 16 -81 3z m65 -51 c21 -21 13 -28 -28 -28
-22 0 -40 4 -40 8 0 14 23 32 40 32 9 0 21 -5 28 -12z"/>
<path d="M1363 1059 c-40 -12 -63 -43 -63 -86 0 -65 26 -98 85 -109 41 -7 105
29 105 60 0 17 -49 18 -66 1 -20 -19 -38 -19 -55 1 -18 22 -1 30 66 28 31 0
58 3 61 8 13 20 -18 77 -50 92 -38 18 -38 18 -83 5z m67 -59 c10 -18 8 -20
-30 -20 -41 0 -49 7 -28 28 18 18 46 14 58 -8z"/>
</g>
</svg>
